; NON-PLATED HOLES START AT T1
; THROUGH (PLATED) HOLES START AT T100
M48
INCH
T100C0.098425
T101C0.038000
T102C0.039370
%
T100
X000989Y001020
X000989Y008020
T101
X016486Y005530
X018486Y003531
X019486Y003531
X017486Y006531
X012486Y007534
X017486Y002531
X019486Y006531
X014486Y004531
X009486Y005533
X016486Y003530
X016486Y002530
X010486Y005533
X016486Y006530
X018486Y006531
X015486Y004530
X015486Y005530
X014486Y002531
X013486Y003530
X013486Y004530
X015486Y003530
X011486Y006533
X016486Y004530
X012486Y006534
X017486Y003531
X009486Y007533
X015486Y006530
X018486Y002531
X015486Y002530
X019486Y004531
X011486Y007533
X019486Y002531
X014486Y003531
X017486Y004531
X011486Y005533
X013486Y002530
X013486Y005530
X010486Y006533
X018486Y004531
X014486Y005531
X009486Y006533
X018486Y005531
X019486Y005531
X010486Y007533
X013486Y006530
X014486Y006531
X017486Y005531
X012486Y005534
T102
X014489Y008520
X010489Y008520
X006489Y000520
X005489Y000520
X003489Y001520
X004489Y001520
X008489Y000520
X017489Y008520
X016489Y008520
X016489Y000520
X012489Y007520
X017489Y007520
X007489Y007520
X015489Y008520
X006489Y008520
X007489Y001520
X015489Y001520
X011489Y001520
X010489Y007520
X002489Y000520
X011489Y007520
X011489Y000520
X006489Y007520
X016489Y007520
X017489Y000520
X008489Y001520
X007489Y000520
X004489Y000520
X009489Y000520
X014489Y000520
X015489Y000520
X013489Y000520
X003489Y000520
X012489Y008520
X007489Y008520
X015489Y007520
X012489Y001520
X010489Y000520
X012489Y000520
X016489Y001520
X009489Y001520
X013489Y001520
X014489Y007520
X013489Y008520
X008489Y008520
X017489Y001520
X009489Y007520
X013489Y007520
X011489Y008520
X010489Y001520
X005489Y001520
X002489Y001520
X006489Y001520
X009489Y008520
X014489Y001520
X008489Y007520
T00
M30
