G04 MADE WITH FRITZING*
G04 WWW.FRITZING.ORG*
G04 DOUBLE SIDED*
G04 HOLES PLATED*
G04 CONTOUR ON CENTER OF CONTOUR VECTOR*
%ASAXBY*%
%FSLAX23Y23*%
%MOIN*%
%OFA0B0*%
%SFA1.0B1.0*%
%ADD10R,0.001000X0.001000*%
%LNSILK0*%
G90*
G70*
G54D10*
X0Y907D02*
X1996Y907D01*
X0Y906D02*
X1996Y906D01*
X0Y905D02*
X1996Y905D01*
X0Y904D02*
X1996Y904D01*
X0Y903D02*
X1996Y903D01*
X0Y902D02*
X1996Y902D01*
X0Y901D02*
X1996Y901D01*
X0Y900D02*
X1996Y900D01*
X0Y899D02*
X7Y899D01*
X1989Y899D02*
X1996Y899D01*
X0Y898D02*
X7Y898D01*
X1989Y898D02*
X1996Y898D01*
X0Y897D02*
X7Y897D01*
X1989Y897D02*
X1996Y897D01*
X0Y896D02*
X7Y896D01*
X1989Y896D02*
X1996Y896D01*
X0Y895D02*
X7Y895D01*
X1989Y895D02*
X1996Y895D01*
X0Y894D02*
X7Y894D01*
X1989Y894D02*
X1996Y894D01*
X0Y893D02*
X7Y893D01*
X1989Y893D02*
X1996Y893D01*
X0Y892D02*
X7Y892D01*
X1989Y892D02*
X1996Y892D01*
X0Y891D02*
X7Y891D01*
X1989Y891D02*
X1996Y891D01*
X0Y890D02*
X7Y890D01*
X1989Y890D02*
X1996Y890D01*
X0Y889D02*
X7Y889D01*
X1989Y889D02*
X1996Y889D01*
X0Y888D02*
X7Y888D01*
X1989Y888D02*
X1996Y888D01*
X0Y887D02*
X7Y887D01*
X1989Y887D02*
X1996Y887D01*
X0Y886D02*
X7Y886D01*
X1989Y886D02*
X1996Y886D01*
X0Y885D02*
X7Y885D01*
X1989Y885D02*
X1996Y885D01*
X0Y884D02*
X7Y884D01*
X1989Y884D02*
X1996Y884D01*
X0Y883D02*
X7Y883D01*
X1989Y883D02*
X1996Y883D01*
X0Y882D02*
X7Y882D01*
X1989Y882D02*
X1996Y882D01*
X0Y881D02*
X7Y881D01*
X1989Y881D02*
X1996Y881D01*
X0Y880D02*
X7Y880D01*
X1989Y880D02*
X1996Y880D01*
X0Y879D02*
X7Y879D01*
X1989Y879D02*
X1996Y879D01*
X0Y878D02*
X7Y878D01*
X1989Y878D02*
X1996Y878D01*
X0Y877D02*
X7Y877D01*
X1989Y877D02*
X1996Y877D01*
X0Y876D02*
X7Y876D01*
X1989Y876D02*
X1996Y876D01*
X0Y875D02*
X7Y875D01*
X1989Y875D02*
X1996Y875D01*
X0Y874D02*
X7Y874D01*
X1989Y874D02*
X1996Y874D01*
X0Y873D02*
X7Y873D01*
X1989Y873D02*
X1996Y873D01*
X0Y872D02*
X7Y872D01*
X1989Y872D02*
X1996Y872D01*
X0Y871D02*
X7Y871D01*
X1989Y871D02*
X1996Y871D01*
X0Y870D02*
X7Y870D01*
X1989Y870D02*
X1996Y870D01*
X0Y869D02*
X7Y869D01*
X1989Y869D02*
X1996Y869D01*
X0Y868D02*
X7Y868D01*
X1989Y868D02*
X1996Y868D01*
X0Y867D02*
X7Y867D01*
X1989Y867D02*
X1996Y867D01*
X0Y866D02*
X7Y866D01*
X1989Y866D02*
X1996Y866D01*
X0Y865D02*
X7Y865D01*
X1989Y865D02*
X1996Y865D01*
X0Y864D02*
X7Y864D01*
X1989Y864D02*
X1996Y864D01*
X0Y863D02*
X7Y863D01*
X1989Y863D02*
X1996Y863D01*
X0Y862D02*
X7Y862D01*
X1989Y862D02*
X1996Y862D01*
X0Y861D02*
X7Y861D01*
X1989Y861D02*
X1996Y861D01*
X0Y860D02*
X7Y860D01*
X1989Y860D02*
X1996Y860D01*
X0Y859D02*
X7Y859D01*
X1989Y859D02*
X1996Y859D01*
X0Y858D02*
X7Y858D01*
X1989Y858D02*
X1996Y858D01*
X0Y857D02*
X7Y857D01*
X1989Y857D02*
X1996Y857D01*
X0Y856D02*
X7Y856D01*
X1989Y856D02*
X1996Y856D01*
X0Y855D02*
X7Y855D01*
X1989Y855D02*
X1996Y855D01*
X0Y854D02*
X7Y854D01*
X1989Y854D02*
X1996Y854D01*
X0Y853D02*
X7Y853D01*
X1989Y853D02*
X1996Y853D01*
X0Y852D02*
X7Y852D01*
X1989Y852D02*
X1996Y852D01*
X0Y851D02*
X7Y851D01*
X1989Y851D02*
X1996Y851D01*
X0Y850D02*
X7Y850D01*
X1989Y850D02*
X1996Y850D01*
X0Y849D02*
X7Y849D01*
X1989Y849D02*
X1996Y849D01*
X0Y848D02*
X7Y848D01*
X1989Y848D02*
X1996Y848D01*
X0Y847D02*
X7Y847D01*
X1989Y847D02*
X1996Y847D01*
X0Y846D02*
X7Y846D01*
X1989Y846D02*
X1996Y846D01*
X0Y845D02*
X7Y845D01*
X1989Y845D02*
X1996Y845D01*
X0Y844D02*
X7Y844D01*
X1989Y844D02*
X1996Y844D01*
X0Y843D02*
X7Y843D01*
X1989Y843D02*
X1996Y843D01*
X0Y842D02*
X7Y842D01*
X1989Y842D02*
X1996Y842D01*
X0Y841D02*
X7Y841D01*
X1989Y841D02*
X1996Y841D01*
X0Y840D02*
X7Y840D01*
X1989Y840D02*
X1996Y840D01*
X0Y839D02*
X7Y839D01*
X1989Y839D02*
X1996Y839D01*
X0Y838D02*
X7Y838D01*
X1989Y838D02*
X1996Y838D01*
X0Y837D02*
X7Y837D01*
X1989Y837D02*
X1996Y837D01*
X0Y836D02*
X7Y836D01*
X1989Y836D02*
X1996Y836D01*
X0Y835D02*
X7Y835D01*
X1989Y835D02*
X1996Y835D01*
X0Y834D02*
X7Y834D01*
X1989Y834D02*
X1996Y834D01*
X0Y833D02*
X7Y833D01*
X1989Y833D02*
X1996Y833D01*
X0Y832D02*
X7Y832D01*
X1989Y832D02*
X1996Y832D01*
X0Y831D02*
X7Y831D01*
X1989Y831D02*
X1996Y831D01*
X0Y830D02*
X7Y830D01*
X1989Y830D02*
X1996Y830D01*
X0Y829D02*
X7Y829D01*
X1989Y829D02*
X1996Y829D01*
X0Y828D02*
X7Y828D01*
X1989Y828D02*
X1996Y828D01*
X0Y827D02*
X7Y827D01*
X1989Y827D02*
X1996Y827D01*
X0Y826D02*
X7Y826D01*
X1989Y826D02*
X1996Y826D01*
X0Y825D02*
X7Y825D01*
X1989Y825D02*
X1996Y825D01*
X0Y824D02*
X7Y824D01*
X1989Y824D02*
X1996Y824D01*
X0Y823D02*
X7Y823D01*
X1989Y823D02*
X1996Y823D01*
X0Y822D02*
X7Y822D01*
X1989Y822D02*
X1996Y822D01*
X0Y821D02*
X7Y821D01*
X1989Y821D02*
X1996Y821D01*
X0Y820D02*
X7Y820D01*
X1989Y820D02*
X1996Y820D01*
X0Y819D02*
X7Y819D01*
X1989Y819D02*
X1996Y819D01*
X0Y818D02*
X7Y818D01*
X1989Y818D02*
X1996Y818D01*
X0Y817D02*
X7Y817D01*
X1989Y817D02*
X1996Y817D01*
X0Y816D02*
X7Y816D01*
X1989Y816D02*
X1996Y816D01*
X0Y815D02*
X7Y815D01*
X1989Y815D02*
X1996Y815D01*
X0Y814D02*
X7Y814D01*
X1989Y814D02*
X1996Y814D01*
X0Y813D02*
X7Y813D01*
X1989Y813D02*
X1996Y813D01*
X0Y812D02*
X7Y812D01*
X1989Y812D02*
X1996Y812D01*
X0Y811D02*
X7Y811D01*
X1989Y811D02*
X1996Y811D01*
X0Y810D02*
X7Y810D01*
X1989Y810D02*
X1996Y810D01*
X0Y809D02*
X7Y809D01*
X1989Y809D02*
X1996Y809D01*
X0Y808D02*
X7Y808D01*
X1989Y808D02*
X1996Y808D01*
X0Y807D02*
X7Y807D01*
X1989Y807D02*
X1996Y807D01*
X0Y806D02*
X7Y806D01*
X1989Y806D02*
X1996Y806D01*
X0Y805D02*
X7Y805D01*
X1989Y805D02*
X1996Y805D01*
X0Y804D02*
X7Y804D01*
X1989Y804D02*
X1996Y804D01*
X0Y803D02*
X7Y803D01*
X1989Y803D02*
X1996Y803D01*
X0Y802D02*
X7Y802D01*
X1989Y802D02*
X1996Y802D01*
X0Y801D02*
X7Y801D01*
X1989Y801D02*
X1996Y801D01*
X0Y800D02*
X7Y800D01*
X1989Y800D02*
X1996Y800D01*
X0Y799D02*
X7Y799D01*
X1989Y799D02*
X1996Y799D01*
X0Y798D02*
X7Y798D01*
X1989Y798D02*
X1996Y798D01*
X0Y797D02*
X7Y797D01*
X1989Y797D02*
X1996Y797D01*
X0Y796D02*
X7Y796D01*
X1989Y796D02*
X1996Y796D01*
X0Y795D02*
X7Y795D01*
X1989Y795D02*
X1996Y795D01*
X0Y794D02*
X7Y794D01*
X1989Y794D02*
X1996Y794D01*
X0Y793D02*
X7Y793D01*
X1989Y793D02*
X1996Y793D01*
X0Y792D02*
X7Y792D01*
X1989Y792D02*
X1996Y792D01*
X0Y791D02*
X7Y791D01*
X1989Y791D02*
X1996Y791D01*
X0Y790D02*
X7Y790D01*
X1989Y790D02*
X1996Y790D01*
X0Y789D02*
X7Y789D01*
X1989Y789D02*
X1996Y789D01*
X0Y788D02*
X7Y788D01*
X1989Y788D02*
X1996Y788D01*
X0Y787D02*
X7Y787D01*
X1989Y787D02*
X1996Y787D01*
X0Y786D02*
X7Y786D01*
X1989Y786D02*
X1996Y786D01*
X0Y785D02*
X7Y785D01*
X1989Y785D02*
X1996Y785D01*
X0Y784D02*
X7Y784D01*
X1989Y784D02*
X1996Y784D01*
X0Y783D02*
X7Y783D01*
X1989Y783D02*
X1996Y783D01*
X0Y782D02*
X7Y782D01*
X1989Y782D02*
X1996Y782D01*
X0Y781D02*
X7Y781D01*
X1989Y781D02*
X1996Y781D01*
X0Y780D02*
X7Y780D01*
X1989Y780D02*
X1996Y780D01*
X0Y779D02*
X7Y779D01*
X1989Y779D02*
X1996Y779D01*
X0Y778D02*
X7Y778D01*
X1989Y778D02*
X1996Y778D01*
X0Y777D02*
X7Y777D01*
X1989Y777D02*
X1996Y777D01*
X0Y776D02*
X7Y776D01*
X1989Y776D02*
X1996Y776D01*
X0Y775D02*
X7Y775D01*
X1989Y775D02*
X1996Y775D01*
X0Y774D02*
X7Y774D01*
X1989Y774D02*
X1996Y774D01*
X0Y773D02*
X7Y773D01*
X1989Y773D02*
X1996Y773D01*
X0Y772D02*
X7Y772D01*
X1989Y772D02*
X1996Y772D01*
X0Y771D02*
X7Y771D01*
X1989Y771D02*
X1996Y771D01*
X0Y770D02*
X7Y770D01*
X1989Y770D02*
X1996Y770D01*
X0Y769D02*
X7Y769D01*
X1989Y769D02*
X1996Y769D01*
X0Y768D02*
X7Y768D01*
X1989Y768D02*
X1996Y768D01*
X0Y767D02*
X7Y767D01*
X1989Y767D02*
X1996Y767D01*
X0Y766D02*
X7Y766D01*
X1989Y766D02*
X1996Y766D01*
X0Y765D02*
X7Y765D01*
X1989Y765D02*
X1996Y765D01*
X0Y764D02*
X7Y764D01*
X1989Y764D02*
X1996Y764D01*
X0Y763D02*
X7Y763D01*
X1989Y763D02*
X1996Y763D01*
X0Y762D02*
X7Y762D01*
X1989Y762D02*
X1996Y762D01*
X0Y761D02*
X7Y761D01*
X1989Y761D02*
X1996Y761D01*
X0Y760D02*
X7Y760D01*
X1989Y760D02*
X1996Y760D01*
X0Y759D02*
X7Y759D01*
X1989Y759D02*
X1996Y759D01*
X0Y758D02*
X7Y758D01*
X1989Y758D02*
X1996Y758D01*
X0Y757D02*
X7Y757D01*
X1989Y757D02*
X1996Y757D01*
X0Y756D02*
X7Y756D01*
X1989Y756D02*
X1996Y756D01*
X0Y755D02*
X7Y755D01*
X1989Y755D02*
X1996Y755D01*
X0Y754D02*
X7Y754D01*
X1989Y754D02*
X1996Y754D01*
X0Y753D02*
X7Y753D01*
X1989Y753D02*
X1996Y753D01*
X0Y752D02*
X7Y752D01*
X1989Y752D02*
X1996Y752D01*
X0Y751D02*
X7Y751D01*
X1989Y751D02*
X1996Y751D01*
X0Y750D02*
X7Y750D01*
X1989Y750D02*
X1996Y750D01*
X0Y749D02*
X7Y749D01*
X1989Y749D02*
X1996Y749D01*
X0Y748D02*
X7Y748D01*
X1989Y748D02*
X1996Y748D01*
X0Y747D02*
X7Y747D01*
X1989Y747D02*
X1996Y747D01*
X0Y746D02*
X7Y746D01*
X1989Y746D02*
X1996Y746D01*
X0Y745D02*
X7Y745D01*
X1989Y745D02*
X1996Y745D01*
X0Y744D02*
X7Y744D01*
X1989Y744D02*
X1996Y744D01*
X0Y743D02*
X7Y743D01*
X1989Y743D02*
X1996Y743D01*
X0Y742D02*
X7Y742D01*
X1989Y742D02*
X1996Y742D01*
X0Y741D02*
X7Y741D01*
X1989Y741D02*
X1996Y741D01*
X0Y740D02*
X7Y740D01*
X1989Y740D02*
X1996Y740D01*
X0Y739D02*
X7Y739D01*
X1989Y739D02*
X1996Y739D01*
X0Y738D02*
X7Y738D01*
X1989Y738D02*
X1996Y738D01*
X0Y737D02*
X7Y737D01*
X1989Y737D02*
X1996Y737D01*
X0Y736D02*
X7Y736D01*
X1989Y736D02*
X1996Y736D01*
X0Y735D02*
X7Y735D01*
X1989Y735D02*
X1996Y735D01*
X0Y734D02*
X7Y734D01*
X1989Y734D02*
X1996Y734D01*
X0Y733D02*
X7Y733D01*
X1989Y733D02*
X1996Y733D01*
X0Y732D02*
X7Y732D01*
X1989Y732D02*
X1996Y732D01*
X0Y731D02*
X7Y731D01*
X1989Y731D02*
X1996Y731D01*
X0Y730D02*
X7Y730D01*
X1989Y730D02*
X1996Y730D01*
X0Y729D02*
X7Y729D01*
X1989Y729D02*
X1996Y729D01*
X0Y728D02*
X7Y728D01*
X1989Y728D02*
X1996Y728D01*
X0Y727D02*
X7Y727D01*
X1989Y727D02*
X1996Y727D01*
X0Y726D02*
X7Y726D01*
X1989Y726D02*
X1996Y726D01*
X0Y725D02*
X7Y725D01*
X1989Y725D02*
X1996Y725D01*
X0Y724D02*
X7Y724D01*
X1989Y724D02*
X1996Y724D01*
X0Y723D02*
X7Y723D01*
X1989Y723D02*
X1996Y723D01*
X0Y722D02*
X7Y722D01*
X1989Y722D02*
X1996Y722D01*
X0Y721D02*
X7Y721D01*
X1989Y721D02*
X1996Y721D01*
X0Y720D02*
X7Y720D01*
X1989Y720D02*
X1996Y720D01*
X0Y719D02*
X7Y719D01*
X1989Y719D02*
X1996Y719D01*
X0Y718D02*
X7Y718D01*
X1989Y718D02*
X1996Y718D01*
X0Y717D02*
X7Y717D01*
X1989Y717D02*
X1996Y717D01*
X0Y716D02*
X7Y716D01*
X1989Y716D02*
X1996Y716D01*
X0Y715D02*
X7Y715D01*
X1989Y715D02*
X1996Y715D01*
X0Y714D02*
X7Y714D01*
X1989Y714D02*
X1996Y714D01*
X0Y713D02*
X7Y713D01*
X1989Y713D02*
X1996Y713D01*
X0Y712D02*
X7Y712D01*
X1989Y712D02*
X1996Y712D01*
X0Y711D02*
X7Y711D01*
X1989Y711D02*
X1996Y711D01*
X0Y710D02*
X7Y710D01*
X1989Y710D02*
X1996Y710D01*
X0Y709D02*
X7Y709D01*
X1989Y709D02*
X1996Y709D01*
X0Y708D02*
X7Y708D01*
X1989Y708D02*
X1996Y708D01*
X0Y707D02*
X7Y707D01*
X1989Y707D02*
X1996Y707D01*
X0Y706D02*
X7Y706D01*
X1989Y706D02*
X1996Y706D01*
X0Y705D02*
X7Y705D01*
X1989Y705D02*
X1996Y705D01*
X0Y704D02*
X7Y704D01*
X1989Y704D02*
X1996Y704D01*
X0Y703D02*
X7Y703D01*
X1989Y703D02*
X1996Y703D01*
X0Y702D02*
X7Y702D01*
X1989Y702D02*
X1996Y702D01*
X0Y701D02*
X7Y701D01*
X1989Y701D02*
X1996Y701D01*
X0Y700D02*
X7Y700D01*
X1989Y700D02*
X1996Y700D01*
X0Y699D02*
X7Y699D01*
X1989Y699D02*
X1996Y699D01*
X0Y698D02*
X7Y698D01*
X1989Y698D02*
X1996Y698D01*
X0Y697D02*
X7Y697D01*
X1989Y697D02*
X1996Y697D01*
X0Y696D02*
X7Y696D01*
X1989Y696D02*
X1996Y696D01*
X0Y695D02*
X7Y695D01*
X1989Y695D02*
X1996Y695D01*
X0Y694D02*
X7Y694D01*
X1989Y694D02*
X1996Y694D01*
X0Y693D02*
X7Y693D01*
X1989Y693D02*
X1996Y693D01*
X0Y692D02*
X7Y692D01*
X1989Y692D02*
X1996Y692D01*
X0Y691D02*
X7Y691D01*
X1989Y691D02*
X1996Y691D01*
X0Y690D02*
X7Y690D01*
X1989Y690D02*
X1996Y690D01*
X0Y689D02*
X7Y689D01*
X1989Y689D02*
X1996Y689D01*
X0Y688D02*
X7Y688D01*
X1989Y688D02*
X1996Y688D01*
X0Y687D02*
X7Y687D01*
X1989Y687D02*
X1996Y687D01*
X0Y686D02*
X7Y686D01*
X1989Y686D02*
X1996Y686D01*
X0Y685D02*
X7Y685D01*
X1989Y685D02*
X1996Y685D01*
X0Y684D02*
X7Y684D01*
X1989Y684D02*
X1996Y684D01*
X0Y683D02*
X7Y683D01*
X1989Y683D02*
X1996Y683D01*
X0Y682D02*
X7Y682D01*
X1989Y682D02*
X1996Y682D01*
X0Y681D02*
X7Y681D01*
X1989Y681D02*
X1996Y681D01*
X0Y680D02*
X7Y680D01*
X1989Y680D02*
X1996Y680D01*
X0Y679D02*
X7Y679D01*
X1989Y679D02*
X1996Y679D01*
X0Y678D02*
X7Y678D01*
X1989Y678D02*
X1996Y678D01*
X0Y677D02*
X7Y677D01*
X1989Y677D02*
X1996Y677D01*
X0Y676D02*
X7Y676D01*
X1989Y676D02*
X1996Y676D01*
X0Y675D02*
X7Y675D01*
X1989Y675D02*
X1996Y675D01*
X0Y674D02*
X7Y674D01*
X1989Y674D02*
X1996Y674D01*
X0Y673D02*
X7Y673D01*
X1989Y673D02*
X1996Y673D01*
X0Y672D02*
X7Y672D01*
X1989Y672D02*
X1996Y672D01*
X0Y671D02*
X7Y671D01*
X1989Y671D02*
X1996Y671D01*
X0Y670D02*
X7Y670D01*
X1989Y670D02*
X1996Y670D01*
X0Y669D02*
X7Y669D01*
X1989Y669D02*
X1996Y669D01*
X0Y668D02*
X7Y668D01*
X1990Y668D02*
X1996Y668D01*
X0Y667D02*
X7Y667D01*
X1990Y667D02*
X1996Y667D01*
X0Y666D02*
X7Y666D01*
X1990Y666D02*
X1996Y666D01*
X0Y665D02*
X7Y665D01*
X1991Y665D02*
X1996Y665D01*
X0Y664D02*
X7Y664D01*
X1991Y664D02*
X1996Y664D01*
X0Y663D02*
X7Y663D01*
X1991Y663D02*
X1996Y663D01*
X0Y662D02*
X7Y662D01*
X1991Y662D02*
X1996Y662D01*
X0Y661D02*
X7Y661D01*
X1992Y661D02*
X1996Y661D01*
X0Y660D02*
X7Y660D01*
X1992Y660D02*
X1996Y660D01*
X0Y659D02*
X7Y659D01*
X1992Y659D02*
X1996Y659D01*
X0Y658D02*
X7Y658D01*
X1992Y658D02*
X1996Y658D01*
X0Y657D02*
X7Y657D01*
X1992Y657D02*
X1996Y657D01*
X0Y656D02*
X7Y656D01*
X1992Y656D02*
X1996Y656D01*
X0Y655D02*
X7Y655D01*
X1992Y655D02*
X1996Y655D01*
X0Y654D02*
X7Y654D01*
X1992Y654D02*
X1996Y654D01*
X0Y653D02*
X7Y653D01*
X1992Y653D02*
X1996Y653D01*
X0Y652D02*
X7Y652D01*
X1992Y652D02*
X1996Y652D01*
X0Y651D02*
X7Y651D01*
X1992Y651D02*
X1996Y651D01*
X0Y650D02*
X7Y650D01*
X1992Y650D02*
X1996Y650D01*
X0Y649D02*
X7Y649D01*
X1992Y649D02*
X1996Y649D01*
X0Y648D02*
X7Y648D01*
X1992Y648D02*
X1996Y648D01*
X0Y647D02*
X7Y647D01*
X1992Y647D02*
X1996Y647D01*
X0Y646D02*
X7Y646D01*
X1992Y646D02*
X1996Y646D01*
X0Y645D02*
X7Y645D01*
X1991Y645D02*
X1996Y645D01*
X0Y644D02*
X7Y644D01*
X1991Y644D02*
X1996Y644D01*
X0Y643D02*
X7Y643D01*
X1991Y643D02*
X1996Y643D01*
X0Y642D02*
X7Y642D01*
X1991Y642D02*
X1996Y642D01*
X0Y641D02*
X7Y641D01*
X1990Y641D02*
X1996Y641D01*
X0Y640D02*
X7Y640D01*
X1990Y640D02*
X1996Y640D01*
X0Y639D02*
X7Y639D01*
X1990Y639D02*
X1996Y639D01*
X0Y638D02*
X7Y638D01*
X1989Y638D02*
X1996Y638D01*
X0Y637D02*
X7Y637D01*
X1989Y637D02*
X1996Y637D01*
X0Y636D02*
X7Y636D01*
X1989Y636D02*
X1996Y636D01*
X0Y635D02*
X7Y635D01*
X1989Y635D02*
X1996Y635D01*
X0Y634D02*
X7Y634D01*
X1989Y634D02*
X1996Y634D01*
X0Y633D02*
X7Y633D01*
X1989Y633D02*
X1996Y633D01*
X0Y632D02*
X7Y632D01*
X1989Y632D02*
X1996Y632D01*
X0Y631D02*
X7Y631D01*
X1989Y631D02*
X1996Y631D01*
X0Y630D02*
X7Y630D01*
X1989Y630D02*
X1996Y630D01*
X0Y629D02*
X7Y629D01*
X1989Y629D02*
X1996Y629D01*
X0Y628D02*
X7Y628D01*
X1989Y628D02*
X1996Y628D01*
X0Y627D02*
X7Y627D01*
X1989Y627D02*
X1996Y627D01*
X0Y626D02*
X7Y626D01*
X1989Y626D02*
X1996Y626D01*
X0Y625D02*
X7Y625D01*
X1989Y625D02*
X1996Y625D01*
X0Y624D02*
X7Y624D01*
X1989Y624D02*
X1996Y624D01*
X0Y623D02*
X7Y623D01*
X1989Y623D02*
X1996Y623D01*
X0Y622D02*
X7Y622D01*
X1989Y622D02*
X1996Y622D01*
X0Y621D02*
X7Y621D01*
X1989Y621D02*
X1996Y621D01*
X0Y620D02*
X7Y620D01*
X1989Y620D02*
X1996Y620D01*
X0Y619D02*
X7Y619D01*
X1989Y619D02*
X1996Y619D01*
X0Y618D02*
X7Y618D01*
X1989Y618D02*
X1996Y618D01*
X0Y617D02*
X7Y617D01*
X1989Y617D02*
X1996Y617D01*
X0Y616D02*
X7Y616D01*
X1989Y616D02*
X1996Y616D01*
X0Y615D02*
X7Y615D01*
X1989Y615D02*
X1996Y615D01*
X0Y614D02*
X7Y614D01*
X1989Y614D02*
X1996Y614D01*
X0Y613D02*
X7Y613D01*
X1989Y613D02*
X1996Y613D01*
X0Y612D02*
X7Y612D01*
X1989Y612D02*
X1996Y612D01*
X0Y611D02*
X7Y611D01*
X1989Y611D02*
X1996Y611D01*
X0Y610D02*
X7Y610D01*
X1989Y610D02*
X1996Y610D01*
X0Y609D02*
X7Y609D01*
X1989Y609D02*
X1996Y609D01*
X0Y608D02*
X7Y608D01*
X1989Y608D02*
X1996Y608D01*
X0Y607D02*
X7Y607D01*
X1989Y607D02*
X1996Y607D01*
X0Y606D02*
X7Y606D01*
X1989Y606D02*
X1996Y606D01*
X0Y605D02*
X7Y605D01*
X1989Y605D02*
X1996Y605D01*
X0Y604D02*
X7Y604D01*
X1989Y604D02*
X1996Y604D01*
X0Y603D02*
X7Y603D01*
X1989Y603D02*
X1996Y603D01*
X0Y602D02*
X7Y602D01*
X1989Y602D02*
X1996Y602D01*
X0Y601D02*
X7Y601D01*
X1989Y601D02*
X1996Y601D01*
X0Y600D02*
X7Y600D01*
X1989Y600D02*
X1996Y600D01*
X0Y599D02*
X7Y599D01*
X1989Y599D02*
X1996Y599D01*
X0Y598D02*
X7Y598D01*
X1989Y598D02*
X1996Y598D01*
X0Y597D02*
X7Y597D01*
X1989Y597D02*
X1996Y597D01*
X0Y596D02*
X7Y596D01*
X1989Y596D02*
X1996Y596D01*
X0Y595D02*
X7Y595D01*
X1989Y595D02*
X1996Y595D01*
X0Y594D02*
X7Y594D01*
X1989Y594D02*
X1996Y594D01*
X0Y593D02*
X7Y593D01*
X1989Y593D02*
X1996Y593D01*
X0Y592D02*
X7Y592D01*
X1989Y592D02*
X1996Y592D01*
X0Y591D02*
X7Y591D01*
X1989Y591D02*
X1996Y591D01*
X0Y590D02*
X7Y590D01*
X1989Y590D02*
X1996Y590D01*
X0Y589D02*
X7Y589D01*
X1989Y589D02*
X1996Y589D01*
X0Y588D02*
X7Y588D01*
X1989Y588D02*
X1996Y588D01*
X0Y587D02*
X7Y587D01*
X1989Y587D02*
X1996Y587D01*
X0Y586D02*
X7Y586D01*
X1989Y586D02*
X1996Y586D01*
X0Y585D02*
X7Y585D01*
X1989Y585D02*
X1996Y585D01*
X0Y584D02*
X7Y584D01*
X1989Y584D02*
X1996Y584D01*
X0Y583D02*
X7Y583D01*
X1989Y583D02*
X1996Y583D01*
X0Y582D02*
X7Y582D01*
X1989Y582D02*
X1996Y582D01*
X0Y581D02*
X7Y581D01*
X1989Y581D02*
X1996Y581D01*
X0Y580D02*
X7Y580D01*
X1989Y580D02*
X1996Y580D01*
X0Y579D02*
X7Y579D01*
X1989Y579D02*
X1996Y579D01*
X0Y578D02*
X7Y578D01*
X1989Y578D02*
X1996Y578D01*
X0Y577D02*
X7Y577D01*
X1989Y577D02*
X1996Y577D01*
X0Y576D02*
X7Y576D01*
X1989Y576D02*
X1996Y576D01*
X0Y575D02*
X7Y575D01*
X1989Y575D02*
X1996Y575D01*
X0Y574D02*
X7Y574D01*
X1989Y574D02*
X1996Y574D01*
X0Y573D02*
X7Y573D01*
X1989Y573D02*
X1996Y573D01*
X0Y572D02*
X7Y572D01*
X1989Y572D02*
X1996Y572D01*
X0Y571D02*
X7Y571D01*
X1989Y571D02*
X1996Y571D01*
X0Y570D02*
X7Y570D01*
X1989Y570D02*
X1996Y570D01*
X0Y569D02*
X7Y569D01*
X1989Y569D02*
X1996Y569D01*
X0Y568D02*
X7Y568D01*
X1990Y568D02*
X1996Y568D01*
X0Y567D02*
X7Y567D01*
X1990Y567D02*
X1996Y567D01*
X0Y566D02*
X7Y566D01*
X1990Y566D02*
X1996Y566D01*
X0Y565D02*
X7Y565D01*
X1991Y565D02*
X1996Y565D01*
X0Y564D02*
X7Y564D01*
X1991Y564D02*
X1996Y564D01*
X0Y563D02*
X7Y563D01*
X1991Y563D02*
X1996Y563D01*
X0Y562D02*
X7Y562D01*
X1991Y562D02*
X1996Y562D01*
X0Y561D02*
X7Y561D01*
X1992Y561D02*
X1996Y561D01*
X0Y560D02*
X7Y560D01*
X1992Y560D02*
X1996Y560D01*
X0Y559D02*
X7Y559D01*
X1992Y559D02*
X1996Y559D01*
X0Y558D02*
X7Y558D01*
X1992Y558D02*
X1996Y558D01*
X0Y557D02*
X7Y557D01*
X1992Y557D02*
X1996Y557D01*
X0Y556D02*
X7Y556D01*
X1992Y556D02*
X1996Y556D01*
X0Y555D02*
X7Y555D01*
X1992Y555D02*
X1996Y555D01*
X0Y554D02*
X7Y554D01*
X1992Y554D02*
X1996Y554D01*
X0Y553D02*
X7Y553D01*
X1992Y553D02*
X1996Y553D01*
X0Y552D02*
X7Y552D01*
X1992Y552D02*
X1996Y552D01*
X0Y551D02*
X7Y551D01*
X1992Y551D02*
X1996Y551D01*
X0Y550D02*
X7Y550D01*
X1992Y550D02*
X1996Y550D01*
X0Y549D02*
X7Y549D01*
X1992Y549D02*
X1996Y549D01*
X0Y548D02*
X7Y548D01*
X1992Y548D02*
X1996Y548D01*
X0Y547D02*
X7Y547D01*
X1992Y547D02*
X1996Y547D01*
X0Y546D02*
X7Y546D01*
X1992Y546D02*
X1996Y546D01*
X0Y545D02*
X7Y545D01*
X1991Y545D02*
X1996Y545D01*
X0Y544D02*
X7Y544D01*
X1991Y544D02*
X1996Y544D01*
X0Y543D02*
X7Y543D01*
X1991Y543D02*
X1996Y543D01*
X0Y542D02*
X7Y542D01*
X1991Y542D02*
X1996Y542D01*
X0Y541D02*
X7Y541D01*
X1990Y541D02*
X1996Y541D01*
X0Y540D02*
X7Y540D01*
X1990Y540D02*
X1996Y540D01*
X0Y539D02*
X7Y539D01*
X1990Y539D02*
X1996Y539D01*
X0Y538D02*
X7Y538D01*
X1989Y538D02*
X1996Y538D01*
X0Y537D02*
X7Y537D01*
X1989Y537D02*
X1996Y537D01*
X0Y536D02*
X7Y536D01*
X1989Y536D02*
X1996Y536D01*
X0Y535D02*
X7Y535D01*
X1989Y535D02*
X1996Y535D01*
X0Y534D02*
X7Y534D01*
X1989Y534D02*
X1996Y534D01*
X0Y533D02*
X7Y533D01*
X1989Y533D02*
X1996Y533D01*
X0Y532D02*
X7Y532D01*
X1989Y532D02*
X1996Y532D01*
X0Y531D02*
X7Y531D01*
X1989Y531D02*
X1996Y531D01*
X0Y530D02*
X7Y530D01*
X1989Y530D02*
X1996Y530D01*
X0Y529D02*
X7Y529D01*
X1989Y529D02*
X1996Y529D01*
X0Y528D02*
X7Y528D01*
X1989Y528D02*
X1996Y528D01*
X0Y527D02*
X7Y527D01*
X1989Y527D02*
X1996Y527D01*
X0Y526D02*
X7Y526D01*
X1989Y526D02*
X1996Y526D01*
X0Y525D02*
X7Y525D01*
X1989Y525D02*
X1996Y525D01*
X0Y524D02*
X7Y524D01*
X1989Y524D02*
X1996Y524D01*
X0Y523D02*
X7Y523D01*
X1989Y523D02*
X1996Y523D01*
X0Y522D02*
X7Y522D01*
X1989Y522D02*
X1996Y522D01*
X0Y521D02*
X7Y521D01*
X1989Y521D02*
X1996Y521D01*
X0Y520D02*
X7Y520D01*
X1989Y520D02*
X1996Y520D01*
X0Y519D02*
X7Y519D01*
X1989Y519D02*
X1996Y519D01*
X0Y518D02*
X7Y518D01*
X1989Y518D02*
X1996Y518D01*
X0Y517D02*
X7Y517D01*
X1989Y517D02*
X1996Y517D01*
X0Y516D02*
X7Y516D01*
X1989Y516D02*
X1996Y516D01*
X0Y515D02*
X7Y515D01*
X1989Y515D02*
X1996Y515D01*
X0Y514D02*
X7Y514D01*
X1989Y514D02*
X1996Y514D01*
X0Y513D02*
X7Y513D01*
X1989Y513D02*
X1996Y513D01*
X0Y512D02*
X7Y512D01*
X1989Y512D02*
X1996Y512D01*
X0Y511D02*
X7Y511D01*
X1989Y511D02*
X1996Y511D01*
X0Y510D02*
X7Y510D01*
X1989Y510D02*
X1996Y510D01*
X0Y509D02*
X7Y509D01*
X1989Y509D02*
X1996Y509D01*
X0Y508D02*
X7Y508D01*
X1989Y508D02*
X1996Y508D01*
X0Y507D02*
X7Y507D01*
X1989Y507D02*
X1996Y507D01*
X0Y506D02*
X7Y506D01*
X1989Y506D02*
X1996Y506D01*
X0Y505D02*
X7Y505D01*
X1989Y505D02*
X1996Y505D01*
X0Y504D02*
X7Y504D01*
X1989Y504D02*
X1996Y504D01*
X0Y503D02*
X7Y503D01*
X1989Y503D02*
X1996Y503D01*
X0Y502D02*
X7Y502D01*
X1989Y502D02*
X1996Y502D01*
X0Y501D02*
X7Y501D01*
X1989Y501D02*
X1996Y501D01*
X0Y500D02*
X7Y500D01*
X1989Y500D02*
X1996Y500D01*
X0Y499D02*
X7Y499D01*
X1989Y499D02*
X1996Y499D01*
X0Y498D02*
X7Y498D01*
X1989Y498D02*
X1996Y498D01*
X0Y497D02*
X7Y497D01*
X1989Y497D02*
X1996Y497D01*
X0Y496D02*
X7Y496D01*
X1989Y496D02*
X1996Y496D01*
X0Y495D02*
X7Y495D01*
X1989Y495D02*
X1996Y495D01*
X0Y494D02*
X7Y494D01*
X1989Y494D02*
X1996Y494D01*
X0Y493D02*
X7Y493D01*
X1989Y493D02*
X1996Y493D01*
X0Y492D02*
X7Y492D01*
X1989Y492D02*
X1996Y492D01*
X0Y491D02*
X7Y491D01*
X1989Y491D02*
X1996Y491D01*
X0Y490D02*
X7Y490D01*
X1989Y490D02*
X1996Y490D01*
X0Y489D02*
X7Y489D01*
X1989Y489D02*
X1996Y489D01*
X0Y488D02*
X7Y488D01*
X1989Y488D02*
X1996Y488D01*
X0Y487D02*
X7Y487D01*
X1989Y487D02*
X1996Y487D01*
X0Y486D02*
X7Y486D01*
X1989Y486D02*
X1996Y486D01*
X0Y485D02*
X7Y485D01*
X1989Y485D02*
X1996Y485D01*
X0Y484D02*
X7Y484D01*
X1989Y484D02*
X1996Y484D01*
X0Y483D02*
X7Y483D01*
X1989Y483D02*
X1996Y483D01*
X0Y482D02*
X7Y482D01*
X1989Y482D02*
X1996Y482D01*
X0Y481D02*
X7Y481D01*
X1989Y481D02*
X1996Y481D01*
X0Y480D02*
X7Y480D01*
X1989Y480D02*
X1996Y480D01*
X0Y479D02*
X7Y479D01*
X1989Y479D02*
X1996Y479D01*
X0Y478D02*
X7Y478D01*
X1989Y478D02*
X1996Y478D01*
X0Y477D02*
X7Y477D01*
X1989Y477D02*
X1996Y477D01*
X0Y476D02*
X7Y476D01*
X1989Y476D02*
X1996Y476D01*
X0Y475D02*
X7Y475D01*
X1989Y475D02*
X1996Y475D01*
X0Y474D02*
X7Y474D01*
X1989Y474D02*
X1996Y474D01*
X0Y473D02*
X7Y473D01*
X1989Y473D02*
X1996Y473D01*
X0Y472D02*
X7Y472D01*
X1989Y472D02*
X1996Y472D01*
X0Y471D02*
X7Y471D01*
X1989Y471D02*
X1996Y471D01*
X0Y470D02*
X7Y470D01*
X1989Y470D02*
X1996Y470D01*
X0Y469D02*
X7Y469D01*
X1989Y469D02*
X1996Y469D01*
X0Y468D02*
X7Y468D01*
X1990Y468D02*
X1996Y468D01*
X0Y467D02*
X7Y467D01*
X1990Y467D02*
X1996Y467D01*
X0Y466D02*
X7Y466D01*
X1990Y466D02*
X1996Y466D01*
X0Y465D02*
X7Y465D01*
X1991Y465D02*
X1996Y465D01*
X0Y464D02*
X7Y464D01*
X1991Y464D02*
X1996Y464D01*
X0Y463D02*
X7Y463D01*
X1991Y463D02*
X1996Y463D01*
X0Y462D02*
X7Y462D01*
X1991Y462D02*
X1996Y462D01*
X0Y461D02*
X7Y461D01*
X1992Y461D02*
X1996Y461D01*
X0Y460D02*
X7Y460D01*
X1992Y460D02*
X1996Y460D01*
X0Y459D02*
X7Y459D01*
X1992Y459D02*
X1996Y459D01*
X0Y458D02*
X7Y458D01*
X1992Y458D02*
X1996Y458D01*
X0Y457D02*
X7Y457D01*
X1992Y457D02*
X1996Y457D01*
X0Y456D02*
X7Y456D01*
X1992Y456D02*
X1996Y456D01*
X0Y455D02*
X7Y455D01*
X1992Y455D02*
X1996Y455D01*
X0Y454D02*
X7Y454D01*
X1992Y454D02*
X1996Y454D01*
X0Y453D02*
X7Y453D01*
X1992Y453D02*
X1996Y453D01*
X0Y452D02*
X7Y452D01*
X1992Y452D02*
X1996Y452D01*
X0Y451D02*
X7Y451D01*
X1992Y451D02*
X1996Y451D01*
X0Y450D02*
X7Y450D01*
X1992Y450D02*
X1996Y450D01*
X0Y449D02*
X7Y449D01*
X1992Y449D02*
X1996Y449D01*
X0Y448D02*
X7Y448D01*
X1992Y448D02*
X1996Y448D01*
X0Y447D02*
X7Y447D01*
X1992Y447D02*
X1996Y447D01*
X0Y446D02*
X7Y446D01*
X1992Y446D02*
X1996Y446D01*
X0Y445D02*
X7Y445D01*
X1991Y445D02*
X1996Y445D01*
X0Y444D02*
X7Y444D01*
X1991Y444D02*
X1996Y444D01*
X0Y443D02*
X7Y443D01*
X1991Y443D02*
X1996Y443D01*
X0Y442D02*
X7Y442D01*
X1991Y442D02*
X1996Y442D01*
X0Y441D02*
X7Y441D01*
X1990Y441D02*
X1996Y441D01*
X0Y440D02*
X7Y440D01*
X1990Y440D02*
X1996Y440D01*
X0Y439D02*
X7Y439D01*
X1990Y439D02*
X1996Y439D01*
X0Y438D02*
X7Y438D01*
X1989Y438D02*
X1996Y438D01*
X0Y437D02*
X7Y437D01*
X1989Y437D02*
X1996Y437D01*
X0Y436D02*
X7Y436D01*
X1989Y436D02*
X1996Y436D01*
X0Y435D02*
X7Y435D01*
X1989Y435D02*
X1996Y435D01*
X0Y434D02*
X7Y434D01*
X1989Y434D02*
X1996Y434D01*
X0Y433D02*
X7Y433D01*
X1989Y433D02*
X1996Y433D01*
X0Y432D02*
X7Y432D01*
X1989Y432D02*
X1996Y432D01*
X0Y431D02*
X7Y431D01*
X1989Y431D02*
X1996Y431D01*
X0Y430D02*
X7Y430D01*
X1989Y430D02*
X1996Y430D01*
X0Y429D02*
X7Y429D01*
X1989Y429D02*
X1996Y429D01*
X0Y428D02*
X7Y428D01*
X1989Y428D02*
X1996Y428D01*
X0Y427D02*
X7Y427D01*
X1989Y427D02*
X1996Y427D01*
X0Y426D02*
X7Y426D01*
X1989Y426D02*
X1996Y426D01*
X0Y425D02*
X7Y425D01*
X1989Y425D02*
X1996Y425D01*
X0Y424D02*
X7Y424D01*
X1989Y424D02*
X1996Y424D01*
X0Y423D02*
X7Y423D01*
X1989Y423D02*
X1996Y423D01*
X0Y422D02*
X7Y422D01*
X1989Y422D02*
X1996Y422D01*
X0Y421D02*
X7Y421D01*
X1989Y421D02*
X1996Y421D01*
X0Y420D02*
X7Y420D01*
X1989Y420D02*
X1996Y420D01*
X0Y419D02*
X7Y419D01*
X1989Y419D02*
X1996Y419D01*
X0Y418D02*
X7Y418D01*
X1989Y418D02*
X1996Y418D01*
X0Y417D02*
X7Y417D01*
X1989Y417D02*
X1996Y417D01*
X0Y416D02*
X7Y416D01*
X1989Y416D02*
X1996Y416D01*
X0Y415D02*
X7Y415D01*
X1989Y415D02*
X1996Y415D01*
X0Y414D02*
X7Y414D01*
X1989Y414D02*
X1996Y414D01*
X0Y413D02*
X7Y413D01*
X1989Y413D02*
X1996Y413D01*
X0Y412D02*
X7Y412D01*
X1989Y412D02*
X1996Y412D01*
X0Y411D02*
X7Y411D01*
X1989Y411D02*
X1996Y411D01*
X0Y410D02*
X7Y410D01*
X1989Y410D02*
X1996Y410D01*
X0Y409D02*
X7Y409D01*
X1989Y409D02*
X1996Y409D01*
X0Y408D02*
X7Y408D01*
X1989Y408D02*
X1996Y408D01*
X0Y407D02*
X7Y407D01*
X1989Y407D02*
X1996Y407D01*
X0Y406D02*
X7Y406D01*
X1989Y406D02*
X1996Y406D01*
X0Y405D02*
X7Y405D01*
X1989Y405D02*
X1996Y405D01*
X0Y404D02*
X7Y404D01*
X1989Y404D02*
X1996Y404D01*
X0Y403D02*
X7Y403D01*
X1989Y403D02*
X1996Y403D01*
X0Y402D02*
X7Y402D01*
X1989Y402D02*
X1996Y402D01*
X0Y401D02*
X7Y401D01*
X1989Y401D02*
X1996Y401D01*
X0Y400D02*
X7Y400D01*
X1989Y400D02*
X1996Y400D01*
X0Y399D02*
X7Y399D01*
X1989Y399D02*
X1996Y399D01*
X0Y398D02*
X7Y398D01*
X1989Y398D02*
X1996Y398D01*
X0Y397D02*
X7Y397D01*
X1989Y397D02*
X1996Y397D01*
X0Y396D02*
X7Y396D01*
X1989Y396D02*
X1996Y396D01*
X0Y395D02*
X7Y395D01*
X1989Y395D02*
X1996Y395D01*
X0Y394D02*
X7Y394D01*
X1989Y394D02*
X1996Y394D01*
X0Y393D02*
X7Y393D01*
X1989Y393D02*
X1996Y393D01*
X0Y392D02*
X7Y392D01*
X1989Y392D02*
X1996Y392D01*
X0Y391D02*
X7Y391D01*
X1989Y391D02*
X1996Y391D01*
X0Y390D02*
X7Y390D01*
X1989Y390D02*
X1996Y390D01*
X0Y389D02*
X7Y389D01*
X1989Y389D02*
X1996Y389D01*
X0Y388D02*
X7Y388D01*
X1989Y388D02*
X1996Y388D01*
X0Y387D02*
X7Y387D01*
X1989Y387D02*
X1996Y387D01*
X0Y386D02*
X7Y386D01*
X1989Y386D02*
X1996Y386D01*
X0Y385D02*
X7Y385D01*
X1989Y385D02*
X1996Y385D01*
X0Y384D02*
X7Y384D01*
X1989Y384D02*
X1996Y384D01*
X0Y383D02*
X7Y383D01*
X1989Y383D02*
X1996Y383D01*
X0Y382D02*
X7Y382D01*
X1989Y382D02*
X1996Y382D01*
X0Y381D02*
X7Y381D01*
X1989Y381D02*
X1996Y381D01*
X0Y380D02*
X7Y380D01*
X1989Y380D02*
X1996Y380D01*
X0Y379D02*
X7Y379D01*
X1989Y379D02*
X1996Y379D01*
X0Y378D02*
X7Y378D01*
X1989Y378D02*
X1996Y378D01*
X0Y377D02*
X7Y377D01*
X1989Y377D02*
X1996Y377D01*
X0Y376D02*
X7Y376D01*
X1989Y376D02*
X1996Y376D01*
X0Y375D02*
X7Y375D01*
X1989Y375D02*
X1996Y375D01*
X0Y374D02*
X7Y374D01*
X1989Y374D02*
X1996Y374D01*
X0Y373D02*
X7Y373D01*
X1989Y373D02*
X1996Y373D01*
X0Y372D02*
X7Y372D01*
X1989Y372D02*
X1996Y372D01*
X0Y371D02*
X7Y371D01*
X1989Y371D02*
X1996Y371D01*
X0Y370D02*
X7Y370D01*
X1989Y370D02*
X1996Y370D01*
X0Y369D02*
X7Y369D01*
X1989Y369D02*
X1996Y369D01*
X0Y368D02*
X7Y368D01*
X1990Y368D02*
X1996Y368D01*
X0Y367D02*
X7Y367D01*
X1990Y367D02*
X1996Y367D01*
X0Y366D02*
X7Y366D01*
X1990Y366D02*
X1996Y366D01*
X0Y365D02*
X7Y365D01*
X1991Y365D02*
X1996Y365D01*
X0Y364D02*
X7Y364D01*
X1991Y364D02*
X1996Y364D01*
X0Y363D02*
X7Y363D01*
X1991Y363D02*
X1996Y363D01*
X0Y362D02*
X7Y362D01*
X1991Y362D02*
X1996Y362D01*
X0Y361D02*
X7Y361D01*
X1992Y361D02*
X1996Y361D01*
X0Y360D02*
X7Y360D01*
X1992Y360D02*
X1996Y360D01*
X0Y359D02*
X7Y359D01*
X1992Y359D02*
X1996Y359D01*
X0Y358D02*
X7Y358D01*
X1992Y358D02*
X1996Y358D01*
X0Y357D02*
X7Y357D01*
X1992Y357D02*
X1996Y357D01*
X0Y356D02*
X7Y356D01*
X1992Y356D02*
X1996Y356D01*
X0Y355D02*
X7Y355D01*
X1992Y355D02*
X1996Y355D01*
X0Y354D02*
X7Y354D01*
X1992Y354D02*
X1996Y354D01*
X0Y353D02*
X7Y353D01*
X1992Y353D02*
X1996Y353D01*
X0Y352D02*
X7Y352D01*
X1992Y352D02*
X1996Y352D01*
X0Y351D02*
X7Y351D01*
X1992Y351D02*
X1996Y351D01*
X0Y350D02*
X7Y350D01*
X1992Y350D02*
X1996Y350D01*
X0Y349D02*
X7Y349D01*
X1992Y349D02*
X1996Y349D01*
X0Y348D02*
X7Y348D01*
X1992Y348D02*
X1996Y348D01*
X0Y347D02*
X7Y347D01*
X1992Y347D02*
X1996Y347D01*
X0Y346D02*
X7Y346D01*
X1992Y346D02*
X1996Y346D01*
X0Y345D02*
X7Y345D01*
X1991Y345D02*
X1996Y345D01*
X0Y344D02*
X7Y344D01*
X1991Y344D02*
X1996Y344D01*
X0Y343D02*
X7Y343D01*
X1991Y343D02*
X1996Y343D01*
X0Y342D02*
X7Y342D01*
X1991Y342D02*
X1996Y342D01*
X0Y341D02*
X7Y341D01*
X1990Y341D02*
X1996Y341D01*
X0Y340D02*
X7Y340D01*
X1990Y340D02*
X1996Y340D01*
X0Y339D02*
X7Y339D01*
X1990Y339D02*
X1996Y339D01*
X0Y338D02*
X7Y338D01*
X1989Y338D02*
X1996Y338D01*
X0Y337D02*
X7Y337D01*
X1989Y337D02*
X1996Y337D01*
X0Y336D02*
X7Y336D01*
X1989Y336D02*
X1996Y336D01*
X0Y335D02*
X7Y335D01*
X1989Y335D02*
X1996Y335D01*
X0Y334D02*
X7Y334D01*
X1989Y334D02*
X1996Y334D01*
X0Y333D02*
X7Y333D01*
X1989Y333D02*
X1996Y333D01*
X0Y332D02*
X7Y332D01*
X1989Y332D02*
X1996Y332D01*
X0Y331D02*
X7Y331D01*
X1989Y331D02*
X1996Y331D01*
X0Y330D02*
X7Y330D01*
X1989Y330D02*
X1996Y330D01*
X0Y329D02*
X7Y329D01*
X1989Y329D02*
X1996Y329D01*
X0Y328D02*
X7Y328D01*
X1989Y328D02*
X1996Y328D01*
X0Y327D02*
X7Y327D01*
X1989Y327D02*
X1996Y327D01*
X0Y326D02*
X7Y326D01*
X1989Y326D02*
X1996Y326D01*
X0Y325D02*
X7Y325D01*
X1989Y325D02*
X1996Y325D01*
X0Y324D02*
X7Y324D01*
X1989Y324D02*
X1996Y324D01*
X0Y323D02*
X7Y323D01*
X1989Y323D02*
X1996Y323D01*
X0Y322D02*
X7Y322D01*
X1989Y322D02*
X1996Y322D01*
X0Y321D02*
X7Y321D01*
X1989Y321D02*
X1996Y321D01*
X0Y320D02*
X7Y320D01*
X1989Y320D02*
X1996Y320D01*
X0Y319D02*
X7Y319D01*
X1989Y319D02*
X1996Y319D01*
X0Y318D02*
X7Y318D01*
X1989Y318D02*
X1996Y318D01*
X0Y317D02*
X7Y317D01*
X1989Y317D02*
X1996Y317D01*
X0Y316D02*
X7Y316D01*
X1989Y316D02*
X1996Y316D01*
X0Y315D02*
X7Y315D01*
X1989Y315D02*
X1996Y315D01*
X0Y314D02*
X7Y314D01*
X1989Y314D02*
X1996Y314D01*
X0Y313D02*
X7Y313D01*
X1989Y313D02*
X1996Y313D01*
X0Y312D02*
X7Y312D01*
X1989Y312D02*
X1996Y312D01*
X0Y311D02*
X7Y311D01*
X1989Y311D02*
X1996Y311D01*
X0Y310D02*
X7Y310D01*
X1989Y310D02*
X1996Y310D01*
X0Y309D02*
X7Y309D01*
X1989Y309D02*
X1996Y309D01*
X0Y308D02*
X7Y308D01*
X1989Y308D02*
X1996Y308D01*
X0Y307D02*
X7Y307D01*
X1989Y307D02*
X1996Y307D01*
X0Y306D02*
X7Y306D01*
X1989Y306D02*
X1996Y306D01*
X0Y305D02*
X7Y305D01*
X1989Y305D02*
X1996Y305D01*
X0Y304D02*
X7Y304D01*
X1989Y304D02*
X1996Y304D01*
X0Y303D02*
X7Y303D01*
X1989Y303D02*
X1996Y303D01*
X0Y302D02*
X7Y302D01*
X1989Y302D02*
X1996Y302D01*
X0Y301D02*
X7Y301D01*
X1989Y301D02*
X1996Y301D01*
X0Y300D02*
X7Y300D01*
X1989Y300D02*
X1996Y300D01*
X0Y299D02*
X7Y299D01*
X1989Y299D02*
X1996Y299D01*
X0Y298D02*
X7Y298D01*
X1989Y298D02*
X1996Y298D01*
X0Y297D02*
X7Y297D01*
X1989Y297D02*
X1996Y297D01*
X0Y296D02*
X7Y296D01*
X1989Y296D02*
X1996Y296D01*
X0Y295D02*
X7Y295D01*
X1989Y295D02*
X1996Y295D01*
X0Y294D02*
X7Y294D01*
X1989Y294D02*
X1996Y294D01*
X0Y293D02*
X7Y293D01*
X1989Y293D02*
X1996Y293D01*
X0Y292D02*
X7Y292D01*
X1989Y292D02*
X1996Y292D01*
X0Y291D02*
X7Y291D01*
X1989Y291D02*
X1996Y291D01*
X0Y290D02*
X7Y290D01*
X1989Y290D02*
X1996Y290D01*
X0Y289D02*
X7Y289D01*
X1989Y289D02*
X1996Y289D01*
X0Y288D02*
X7Y288D01*
X1989Y288D02*
X1996Y288D01*
X0Y287D02*
X7Y287D01*
X1989Y287D02*
X1996Y287D01*
X0Y286D02*
X7Y286D01*
X1989Y286D02*
X1996Y286D01*
X0Y285D02*
X7Y285D01*
X1989Y285D02*
X1996Y285D01*
X0Y284D02*
X7Y284D01*
X1989Y284D02*
X1996Y284D01*
X0Y283D02*
X7Y283D01*
X1989Y283D02*
X1996Y283D01*
X0Y282D02*
X7Y282D01*
X1989Y282D02*
X1996Y282D01*
X0Y281D02*
X7Y281D01*
X1989Y281D02*
X1996Y281D01*
X0Y280D02*
X7Y280D01*
X1989Y280D02*
X1996Y280D01*
X0Y279D02*
X7Y279D01*
X1989Y279D02*
X1996Y279D01*
X0Y278D02*
X7Y278D01*
X1989Y278D02*
X1996Y278D01*
X0Y277D02*
X7Y277D01*
X1989Y277D02*
X1996Y277D01*
X0Y276D02*
X7Y276D01*
X1989Y276D02*
X1996Y276D01*
X0Y275D02*
X7Y275D01*
X1989Y275D02*
X1996Y275D01*
X0Y274D02*
X7Y274D01*
X1989Y274D02*
X1996Y274D01*
X0Y273D02*
X7Y273D01*
X1989Y273D02*
X1996Y273D01*
X0Y272D02*
X7Y272D01*
X1989Y272D02*
X1996Y272D01*
X0Y271D02*
X7Y271D01*
X1989Y271D02*
X1996Y271D01*
X0Y270D02*
X7Y270D01*
X1989Y270D02*
X1996Y270D01*
X0Y269D02*
X7Y269D01*
X1989Y269D02*
X1996Y269D01*
X0Y268D02*
X7Y268D01*
X1990Y268D02*
X1996Y268D01*
X0Y267D02*
X7Y267D01*
X1990Y267D02*
X1996Y267D01*
X0Y266D02*
X7Y266D01*
X1990Y266D02*
X1996Y266D01*
X0Y265D02*
X7Y265D01*
X1991Y265D02*
X1996Y265D01*
X0Y264D02*
X7Y264D01*
X1991Y264D02*
X1996Y264D01*
X0Y263D02*
X7Y263D01*
X1991Y263D02*
X1996Y263D01*
X0Y262D02*
X7Y262D01*
X1991Y262D02*
X1996Y262D01*
X0Y261D02*
X7Y261D01*
X1992Y261D02*
X1996Y261D01*
X0Y260D02*
X7Y260D01*
X1992Y260D02*
X1996Y260D01*
X0Y259D02*
X7Y259D01*
X1992Y259D02*
X1996Y259D01*
X0Y258D02*
X7Y258D01*
X1992Y258D02*
X1996Y258D01*
X0Y257D02*
X7Y257D01*
X1992Y257D02*
X1996Y257D01*
X0Y256D02*
X7Y256D01*
X1992Y256D02*
X1996Y256D01*
X0Y255D02*
X7Y255D01*
X1992Y255D02*
X1996Y255D01*
X0Y254D02*
X7Y254D01*
X1992Y254D02*
X1996Y254D01*
X0Y253D02*
X7Y253D01*
X1992Y253D02*
X1996Y253D01*
X0Y252D02*
X7Y252D01*
X1992Y252D02*
X1996Y252D01*
X0Y251D02*
X7Y251D01*
X1992Y251D02*
X1996Y251D01*
X0Y250D02*
X7Y250D01*
X1992Y250D02*
X1996Y250D01*
X0Y249D02*
X7Y249D01*
X1992Y249D02*
X1996Y249D01*
X0Y248D02*
X7Y248D01*
X1992Y248D02*
X1996Y248D01*
X0Y247D02*
X7Y247D01*
X1992Y247D02*
X1996Y247D01*
X0Y246D02*
X7Y246D01*
X1992Y246D02*
X1996Y246D01*
X0Y245D02*
X7Y245D01*
X1991Y245D02*
X1996Y245D01*
X0Y244D02*
X7Y244D01*
X1991Y244D02*
X1996Y244D01*
X0Y243D02*
X7Y243D01*
X1991Y243D02*
X1996Y243D01*
X0Y242D02*
X7Y242D01*
X1991Y242D02*
X1996Y242D01*
X0Y241D02*
X7Y241D01*
X1990Y241D02*
X1996Y241D01*
X0Y240D02*
X7Y240D01*
X1990Y240D02*
X1996Y240D01*
X0Y239D02*
X7Y239D01*
X1990Y239D02*
X1996Y239D01*
X0Y238D02*
X7Y238D01*
X1989Y238D02*
X1996Y238D01*
X0Y237D02*
X7Y237D01*
X1989Y237D02*
X1996Y237D01*
X0Y236D02*
X7Y236D01*
X1989Y236D02*
X1996Y236D01*
X0Y235D02*
X7Y235D01*
X1989Y235D02*
X1996Y235D01*
X0Y234D02*
X7Y234D01*
X1989Y234D02*
X1996Y234D01*
X0Y233D02*
X7Y233D01*
X1989Y233D02*
X1996Y233D01*
X0Y232D02*
X7Y232D01*
X1989Y232D02*
X1996Y232D01*
X0Y231D02*
X7Y231D01*
X1989Y231D02*
X1996Y231D01*
X0Y230D02*
X7Y230D01*
X1989Y230D02*
X1996Y230D01*
X0Y229D02*
X7Y229D01*
X1989Y229D02*
X1996Y229D01*
X0Y228D02*
X7Y228D01*
X1989Y228D02*
X1996Y228D01*
X0Y227D02*
X7Y227D01*
X1989Y227D02*
X1996Y227D01*
X0Y226D02*
X7Y226D01*
X1989Y226D02*
X1996Y226D01*
X0Y225D02*
X7Y225D01*
X1989Y225D02*
X1996Y225D01*
X0Y224D02*
X7Y224D01*
X1989Y224D02*
X1996Y224D01*
X0Y223D02*
X7Y223D01*
X1989Y223D02*
X1996Y223D01*
X0Y222D02*
X7Y222D01*
X1989Y222D02*
X1996Y222D01*
X0Y221D02*
X7Y221D01*
X1989Y221D02*
X1996Y221D01*
X0Y220D02*
X7Y220D01*
X1989Y220D02*
X1996Y220D01*
X0Y219D02*
X7Y219D01*
X1989Y219D02*
X1996Y219D01*
X0Y218D02*
X7Y218D01*
X1989Y218D02*
X1996Y218D01*
X0Y217D02*
X7Y217D01*
X1989Y217D02*
X1996Y217D01*
X0Y216D02*
X7Y216D01*
X1989Y216D02*
X1996Y216D01*
X0Y215D02*
X7Y215D01*
X1989Y215D02*
X1996Y215D01*
X0Y214D02*
X7Y214D01*
X1989Y214D02*
X1996Y214D01*
X0Y213D02*
X7Y213D01*
X1989Y213D02*
X1996Y213D01*
X0Y212D02*
X7Y212D01*
X1989Y212D02*
X1996Y212D01*
X0Y211D02*
X7Y211D01*
X1989Y211D02*
X1996Y211D01*
X0Y210D02*
X7Y210D01*
X1989Y210D02*
X1996Y210D01*
X0Y209D02*
X7Y209D01*
X1989Y209D02*
X1996Y209D01*
X0Y208D02*
X7Y208D01*
X1989Y208D02*
X1996Y208D01*
X0Y207D02*
X7Y207D01*
X1989Y207D02*
X1996Y207D01*
X0Y206D02*
X7Y206D01*
X1989Y206D02*
X1996Y206D01*
X0Y205D02*
X7Y205D01*
X1989Y205D02*
X1996Y205D01*
X0Y204D02*
X7Y204D01*
X1989Y204D02*
X1996Y204D01*
X0Y203D02*
X7Y203D01*
X1989Y203D02*
X1996Y203D01*
X0Y202D02*
X7Y202D01*
X1989Y202D02*
X1996Y202D01*
X0Y201D02*
X7Y201D01*
X1989Y201D02*
X1996Y201D01*
X0Y200D02*
X7Y200D01*
X1989Y200D02*
X1996Y200D01*
X0Y199D02*
X7Y199D01*
X1989Y199D02*
X1996Y199D01*
X0Y198D02*
X7Y198D01*
X1989Y198D02*
X1996Y198D01*
X0Y197D02*
X7Y197D01*
X1989Y197D02*
X1996Y197D01*
X0Y196D02*
X7Y196D01*
X1989Y196D02*
X1996Y196D01*
X0Y195D02*
X7Y195D01*
X1989Y195D02*
X1996Y195D01*
X0Y194D02*
X7Y194D01*
X1989Y194D02*
X1996Y194D01*
X0Y193D02*
X7Y193D01*
X1989Y193D02*
X1996Y193D01*
X0Y192D02*
X7Y192D01*
X1989Y192D02*
X1996Y192D01*
X0Y191D02*
X7Y191D01*
X1989Y191D02*
X1996Y191D01*
X0Y190D02*
X7Y190D01*
X1989Y190D02*
X1996Y190D01*
X0Y189D02*
X7Y189D01*
X1989Y189D02*
X1996Y189D01*
X0Y188D02*
X7Y188D01*
X1989Y188D02*
X1996Y188D01*
X0Y187D02*
X7Y187D01*
X1989Y187D02*
X1996Y187D01*
X0Y186D02*
X7Y186D01*
X1989Y186D02*
X1996Y186D01*
X0Y185D02*
X7Y185D01*
X1989Y185D02*
X1996Y185D01*
X0Y184D02*
X7Y184D01*
X1989Y184D02*
X1996Y184D01*
X0Y183D02*
X7Y183D01*
X1989Y183D02*
X1996Y183D01*
X0Y182D02*
X7Y182D01*
X1989Y182D02*
X1996Y182D01*
X0Y181D02*
X7Y181D01*
X1989Y181D02*
X1996Y181D01*
X0Y180D02*
X7Y180D01*
X1989Y180D02*
X1996Y180D01*
X0Y179D02*
X7Y179D01*
X1989Y179D02*
X1996Y179D01*
X0Y178D02*
X7Y178D01*
X1989Y178D02*
X1996Y178D01*
X0Y177D02*
X7Y177D01*
X1989Y177D02*
X1996Y177D01*
X0Y176D02*
X7Y176D01*
X1989Y176D02*
X1996Y176D01*
X0Y175D02*
X7Y175D01*
X1989Y175D02*
X1996Y175D01*
X0Y174D02*
X7Y174D01*
X1989Y174D02*
X1996Y174D01*
X0Y173D02*
X7Y173D01*
X1989Y173D02*
X1996Y173D01*
X0Y172D02*
X7Y172D01*
X1989Y172D02*
X1996Y172D01*
X0Y171D02*
X7Y171D01*
X1989Y171D02*
X1996Y171D01*
X0Y170D02*
X7Y170D01*
X1989Y170D02*
X1996Y170D01*
X0Y169D02*
X7Y169D01*
X1989Y169D02*
X1996Y169D01*
X0Y168D02*
X7Y168D01*
X1989Y168D02*
X1996Y168D01*
X0Y167D02*
X7Y167D01*
X1989Y167D02*
X1996Y167D01*
X0Y166D02*
X7Y166D01*
X1989Y166D02*
X1996Y166D01*
X0Y165D02*
X7Y165D01*
X1989Y165D02*
X1996Y165D01*
X0Y164D02*
X7Y164D01*
X1989Y164D02*
X1996Y164D01*
X0Y163D02*
X7Y163D01*
X1989Y163D02*
X1996Y163D01*
X0Y162D02*
X7Y162D01*
X1989Y162D02*
X1996Y162D01*
X0Y161D02*
X7Y161D01*
X1989Y161D02*
X1996Y161D01*
X0Y160D02*
X7Y160D01*
X1989Y160D02*
X1996Y160D01*
X0Y159D02*
X7Y159D01*
X1989Y159D02*
X1996Y159D01*
X0Y158D02*
X7Y158D01*
X1989Y158D02*
X1996Y158D01*
X0Y157D02*
X7Y157D01*
X1989Y157D02*
X1996Y157D01*
X0Y156D02*
X7Y156D01*
X1989Y156D02*
X1996Y156D01*
X0Y155D02*
X7Y155D01*
X1989Y155D02*
X1996Y155D01*
X0Y154D02*
X7Y154D01*
X1989Y154D02*
X1996Y154D01*
X0Y153D02*
X7Y153D01*
X1989Y153D02*
X1996Y153D01*
X0Y152D02*
X7Y152D01*
X1989Y152D02*
X1996Y152D01*
X0Y151D02*
X7Y151D01*
X1989Y151D02*
X1996Y151D01*
X0Y150D02*
X7Y150D01*
X1989Y150D02*
X1996Y150D01*
X0Y149D02*
X7Y149D01*
X1989Y149D02*
X1996Y149D01*
X0Y148D02*
X7Y148D01*
X1989Y148D02*
X1996Y148D01*
X0Y147D02*
X7Y147D01*
X1989Y147D02*
X1996Y147D01*
X0Y146D02*
X7Y146D01*
X1989Y146D02*
X1996Y146D01*
X0Y145D02*
X7Y145D01*
X1989Y145D02*
X1996Y145D01*
X0Y144D02*
X7Y144D01*
X1989Y144D02*
X1996Y144D01*
X0Y143D02*
X7Y143D01*
X1989Y143D02*
X1996Y143D01*
X0Y142D02*
X7Y142D01*
X1989Y142D02*
X1996Y142D01*
X0Y141D02*
X7Y141D01*
X1989Y141D02*
X1996Y141D01*
X0Y140D02*
X7Y140D01*
X1989Y140D02*
X1996Y140D01*
X0Y139D02*
X7Y139D01*
X1989Y139D02*
X1996Y139D01*
X0Y138D02*
X7Y138D01*
X1989Y138D02*
X1996Y138D01*
X0Y137D02*
X7Y137D01*
X1989Y137D02*
X1996Y137D01*
X0Y136D02*
X7Y136D01*
X1989Y136D02*
X1996Y136D01*
X0Y135D02*
X7Y135D01*
X1989Y135D02*
X1996Y135D01*
X0Y134D02*
X7Y134D01*
X1989Y134D02*
X1996Y134D01*
X0Y133D02*
X7Y133D01*
X1989Y133D02*
X1996Y133D01*
X0Y132D02*
X7Y132D01*
X1989Y132D02*
X1996Y132D01*
X0Y131D02*
X7Y131D01*
X1989Y131D02*
X1996Y131D01*
X0Y130D02*
X7Y130D01*
X1989Y130D02*
X1996Y130D01*
X0Y129D02*
X7Y129D01*
X1989Y129D02*
X1996Y129D01*
X0Y128D02*
X7Y128D01*
X1989Y128D02*
X1996Y128D01*
X0Y127D02*
X7Y127D01*
X1989Y127D02*
X1996Y127D01*
X0Y126D02*
X7Y126D01*
X1989Y126D02*
X1996Y126D01*
X0Y125D02*
X7Y125D01*
X1989Y125D02*
X1996Y125D01*
X0Y124D02*
X7Y124D01*
X1989Y124D02*
X1996Y124D01*
X0Y123D02*
X7Y123D01*
X1989Y123D02*
X1996Y123D01*
X0Y122D02*
X7Y122D01*
X1989Y122D02*
X1996Y122D01*
X0Y121D02*
X7Y121D01*
X1989Y121D02*
X1996Y121D01*
X0Y120D02*
X7Y120D01*
X1989Y120D02*
X1996Y120D01*
X0Y119D02*
X7Y119D01*
X1989Y119D02*
X1996Y119D01*
X0Y118D02*
X7Y118D01*
X1989Y118D02*
X1996Y118D01*
X0Y117D02*
X7Y117D01*
X1989Y117D02*
X1996Y117D01*
X0Y116D02*
X7Y116D01*
X1989Y116D02*
X1996Y116D01*
X0Y115D02*
X7Y115D01*
X1989Y115D02*
X1996Y115D01*
X0Y114D02*
X7Y114D01*
X1989Y114D02*
X1996Y114D01*
X0Y113D02*
X7Y113D01*
X1989Y113D02*
X1996Y113D01*
X0Y112D02*
X7Y112D01*
X1989Y112D02*
X1996Y112D01*
X0Y111D02*
X7Y111D01*
X1989Y111D02*
X1996Y111D01*
X0Y110D02*
X7Y110D01*
X1989Y110D02*
X1996Y110D01*
X0Y109D02*
X7Y109D01*
X1989Y109D02*
X1996Y109D01*
X0Y108D02*
X7Y108D01*
X1989Y108D02*
X1996Y108D01*
X0Y107D02*
X7Y107D01*
X1989Y107D02*
X1996Y107D01*
X0Y106D02*
X7Y106D01*
X1989Y106D02*
X1996Y106D01*
X0Y105D02*
X7Y105D01*
X1989Y105D02*
X1996Y105D01*
X0Y104D02*
X7Y104D01*
X1989Y104D02*
X1996Y104D01*
X0Y103D02*
X7Y103D01*
X1989Y103D02*
X1996Y103D01*
X0Y102D02*
X7Y102D01*
X1989Y102D02*
X1996Y102D01*
X0Y101D02*
X7Y101D01*
X1989Y101D02*
X1996Y101D01*
X0Y100D02*
X7Y100D01*
X1989Y100D02*
X1996Y100D01*
X0Y99D02*
X7Y99D01*
X1989Y99D02*
X1996Y99D01*
X0Y98D02*
X7Y98D01*
X1989Y98D02*
X1996Y98D01*
X0Y97D02*
X7Y97D01*
X1989Y97D02*
X1996Y97D01*
X0Y96D02*
X7Y96D01*
X1989Y96D02*
X1996Y96D01*
X0Y95D02*
X7Y95D01*
X1989Y95D02*
X1996Y95D01*
X0Y94D02*
X7Y94D01*
X1989Y94D02*
X1996Y94D01*
X0Y93D02*
X7Y93D01*
X1989Y93D02*
X1996Y93D01*
X0Y92D02*
X7Y92D01*
X1989Y92D02*
X1996Y92D01*
X0Y91D02*
X7Y91D01*
X1989Y91D02*
X1996Y91D01*
X0Y90D02*
X7Y90D01*
X1989Y90D02*
X1996Y90D01*
X0Y89D02*
X7Y89D01*
X1989Y89D02*
X1996Y89D01*
X0Y88D02*
X7Y88D01*
X1989Y88D02*
X1996Y88D01*
X0Y87D02*
X7Y87D01*
X1989Y87D02*
X1996Y87D01*
X0Y86D02*
X7Y86D01*
X1989Y86D02*
X1996Y86D01*
X0Y85D02*
X7Y85D01*
X1989Y85D02*
X1996Y85D01*
X0Y84D02*
X7Y84D01*
X1989Y84D02*
X1996Y84D01*
X0Y83D02*
X7Y83D01*
X1989Y83D02*
X1996Y83D01*
X0Y82D02*
X7Y82D01*
X1989Y82D02*
X1996Y82D01*
X0Y81D02*
X7Y81D01*
X1989Y81D02*
X1996Y81D01*
X0Y80D02*
X7Y80D01*
X1989Y80D02*
X1996Y80D01*
X0Y79D02*
X7Y79D01*
X1989Y79D02*
X1996Y79D01*
X0Y78D02*
X7Y78D01*
X1989Y78D02*
X1996Y78D01*
X0Y77D02*
X7Y77D01*
X1989Y77D02*
X1996Y77D01*
X0Y76D02*
X7Y76D01*
X1989Y76D02*
X1996Y76D01*
X0Y75D02*
X7Y75D01*
X1989Y75D02*
X1996Y75D01*
X0Y74D02*
X7Y74D01*
X1989Y74D02*
X1996Y74D01*
X0Y73D02*
X7Y73D01*
X1989Y73D02*
X1996Y73D01*
X0Y72D02*
X7Y72D01*
X1989Y72D02*
X1996Y72D01*
X0Y71D02*
X7Y71D01*
X1989Y71D02*
X1996Y71D01*
X0Y70D02*
X7Y70D01*
X1989Y70D02*
X1996Y70D01*
X0Y69D02*
X7Y69D01*
X1989Y69D02*
X1996Y69D01*
X0Y68D02*
X7Y68D01*
X1989Y68D02*
X1996Y68D01*
X0Y67D02*
X7Y67D01*
X1989Y67D02*
X1996Y67D01*
X0Y66D02*
X7Y66D01*
X1989Y66D02*
X1996Y66D01*
X0Y65D02*
X7Y65D01*
X1989Y65D02*
X1996Y65D01*
X0Y64D02*
X7Y64D01*
X1989Y64D02*
X1996Y64D01*
X0Y63D02*
X7Y63D01*
X1989Y63D02*
X1996Y63D01*
X0Y62D02*
X7Y62D01*
X1989Y62D02*
X1996Y62D01*
X0Y61D02*
X7Y61D01*
X1989Y61D02*
X1996Y61D01*
X0Y60D02*
X7Y60D01*
X1989Y60D02*
X1996Y60D01*
X0Y59D02*
X7Y59D01*
X1989Y59D02*
X1996Y59D01*
X0Y58D02*
X7Y58D01*
X1989Y58D02*
X1996Y58D01*
X0Y57D02*
X7Y57D01*
X1989Y57D02*
X1996Y57D01*
X0Y56D02*
X7Y56D01*
X1989Y56D02*
X1996Y56D01*
X0Y55D02*
X7Y55D01*
X1989Y55D02*
X1996Y55D01*
X0Y54D02*
X7Y54D01*
X1989Y54D02*
X1996Y54D01*
X0Y53D02*
X7Y53D01*
X1989Y53D02*
X1996Y53D01*
X0Y52D02*
X7Y52D01*
X1989Y52D02*
X1996Y52D01*
X0Y51D02*
X7Y51D01*
X1989Y51D02*
X1996Y51D01*
X0Y50D02*
X7Y50D01*
X1989Y50D02*
X1996Y50D01*
X0Y49D02*
X7Y49D01*
X1989Y49D02*
X1996Y49D01*
X0Y48D02*
X7Y48D01*
X1989Y48D02*
X1996Y48D01*
X0Y47D02*
X7Y47D01*
X1989Y47D02*
X1996Y47D01*
X0Y46D02*
X7Y46D01*
X1989Y46D02*
X1996Y46D01*
X0Y45D02*
X7Y45D01*
X1989Y45D02*
X1996Y45D01*
X0Y44D02*
X7Y44D01*
X1989Y44D02*
X1996Y44D01*
X0Y43D02*
X7Y43D01*
X1989Y43D02*
X1996Y43D01*
X0Y42D02*
X7Y42D01*
X1989Y42D02*
X1996Y42D01*
X0Y41D02*
X7Y41D01*
X1989Y41D02*
X1996Y41D01*
X0Y40D02*
X7Y40D01*
X1989Y40D02*
X1996Y40D01*
X0Y39D02*
X7Y39D01*
X1989Y39D02*
X1996Y39D01*
X0Y38D02*
X7Y38D01*
X1989Y38D02*
X1996Y38D01*
X0Y37D02*
X7Y37D01*
X1989Y37D02*
X1996Y37D01*
X0Y36D02*
X7Y36D01*
X1989Y36D02*
X1996Y36D01*
X0Y35D02*
X7Y35D01*
X1989Y35D02*
X1996Y35D01*
X0Y34D02*
X7Y34D01*
X1989Y34D02*
X1996Y34D01*
X0Y33D02*
X7Y33D01*
X1989Y33D02*
X1996Y33D01*
X0Y32D02*
X7Y32D01*
X1989Y32D02*
X1996Y32D01*
X0Y31D02*
X7Y31D01*
X1989Y31D02*
X1996Y31D01*
X0Y30D02*
X7Y30D01*
X1989Y30D02*
X1996Y30D01*
X0Y29D02*
X7Y29D01*
X1989Y29D02*
X1996Y29D01*
X0Y28D02*
X7Y28D01*
X1989Y28D02*
X1996Y28D01*
X0Y27D02*
X7Y27D01*
X1989Y27D02*
X1996Y27D01*
X0Y26D02*
X7Y26D01*
X1989Y26D02*
X1996Y26D01*
X0Y25D02*
X7Y25D01*
X1989Y25D02*
X1996Y25D01*
X0Y24D02*
X7Y24D01*
X1989Y24D02*
X1996Y24D01*
X0Y23D02*
X7Y23D01*
X1989Y23D02*
X1996Y23D01*
X0Y22D02*
X7Y22D01*
X1989Y22D02*
X1996Y22D01*
X0Y21D02*
X7Y21D01*
X1989Y21D02*
X1996Y21D01*
X0Y20D02*
X7Y20D01*
X1989Y20D02*
X1996Y20D01*
X0Y19D02*
X7Y19D01*
X1989Y19D02*
X1996Y19D01*
X0Y18D02*
X7Y18D01*
X1989Y18D02*
X1996Y18D01*
X0Y17D02*
X7Y17D01*
X1989Y17D02*
X1996Y17D01*
X0Y16D02*
X7Y16D01*
X1989Y16D02*
X1996Y16D01*
X0Y15D02*
X7Y15D01*
X1989Y15D02*
X1996Y15D01*
X0Y14D02*
X7Y14D01*
X1989Y14D02*
X1996Y14D01*
X0Y13D02*
X7Y13D01*
X1989Y13D02*
X1996Y13D01*
X0Y12D02*
X7Y12D01*
X1989Y12D02*
X1996Y12D01*
X0Y11D02*
X7Y11D01*
X1989Y11D02*
X1996Y11D01*
X0Y10D02*
X7Y10D01*
X1989Y10D02*
X1996Y10D01*
X0Y9D02*
X7Y9D01*
X1989Y9D02*
X1996Y9D01*
X0Y8D02*
X1996Y8D01*
X0Y7D02*
X1996Y7D01*
X0Y6D02*
X1996Y6D01*
X0Y5D02*
X1996Y5D01*
X0Y4D02*
X1996Y4D01*
X0Y3D02*
X1996Y3D01*
X0Y2D02*
X1996Y2D01*
X0Y1D02*
X1996Y1D01*
D02*
G04 End of Silk0*
M02*