G04 MADE WITH FRITZING*
G04 WWW.FRITZING.ORG*
G04 DOUBLE SIDED*
G04 HOLES PLATED*
G04 CONTOUR ON CENTER OF CONTOUR VECTOR*
%ASAXBY*%
%FSLAX23Y23*%
%MOIN*%
%OFA0B0*%
%SFA1.0B1.0*%
%ADD10C,0.000000*%
%ADD11C,0.086000*%
%ADD12C,0.080000*%
%ADD13C,0.160000*%
%ADD14C,0.088000*%
%ADD15R,0.001000X0.001000*%
%LNMASK0*%
G90*
G70*
G54D10*
X849Y752D03*
X849Y752D03*
X849Y752D03*
X849Y752D03*
X849Y752D03*
X849Y752D03*
X849Y752D03*
X849Y752D03*
X849Y752D03*
X849Y752D03*
X849Y752D03*
X849Y752D03*
X849Y752D03*
X849Y752D03*
X849Y752D03*
X849Y752D03*
X849Y752D03*
X849Y752D03*
X849Y752D03*
X849Y752D03*
X849Y752D03*
X849Y752D03*
X849Y752D03*
X849Y752D03*
X849Y752D03*
X849Y752D03*
X849Y752D03*
X849Y752D03*
X849Y752D03*
X849Y752D03*
X849Y752D03*
X849Y752D03*
X849Y752D03*
X849Y752D03*
X849Y752D03*
X849Y752D03*
X849Y752D03*
X849Y752D03*
X849Y752D03*
X849Y752D03*
X849Y752D03*
X849Y752D03*
X849Y752D03*
X849Y752D03*
X849Y752D03*
X849Y752D03*
X849Y752D03*
X849Y752D03*
X849Y752D03*
X849Y752D03*
X849Y752D03*
X849Y752D03*
X849Y752D03*
X849Y752D03*
X849Y752D03*
X849Y752D03*
X849Y752D03*
X849Y752D03*
X849Y752D03*
X849Y752D03*
X849Y752D03*
X849Y752D03*
X849Y752D03*
X849Y752D03*
X849Y752D03*
X849Y752D03*
X849Y752D03*
X849Y752D03*
X849Y752D03*
X849Y752D03*
X849Y752D03*
X849Y752D03*
X849Y752D03*
X849Y752D03*
X849Y752D03*
X849Y752D03*
X849Y752D03*
X849Y752D03*
X849Y752D03*
X849Y752D03*
X849Y752D03*
X849Y752D03*
X849Y752D03*
X849Y752D03*
X849Y752D03*
X849Y752D03*
X849Y752D03*
X849Y752D03*
X849Y752D03*
X849Y752D03*
X849Y752D03*
X849Y752D03*
X849Y752D03*
X849Y752D03*
X849Y752D03*
X849Y752D03*
X849Y752D03*
X849Y752D03*
X849Y752D03*
X849Y752D03*
X849Y752D03*
X849Y752D03*
X849Y752D03*
X849Y752D03*
X849Y752D03*
X849Y752D03*
X849Y752D03*
X849Y752D03*
G54D11*
X649Y752D03*
G54D12*
X649Y852D03*
G54D13*
X99Y102D03*
G54D12*
X849Y852D03*
G54D13*
X99Y802D03*
G54D12*
X1049Y852D03*
X749Y852D03*
X1249Y852D03*
X949Y852D03*
X1449Y852D03*
X1149Y852D03*
X1649Y852D03*
X1349Y852D03*
X1749Y52D03*
X1549Y852D03*
X1549Y52D03*
X1749Y852D03*
X1349Y52D03*
X1649Y52D03*
X1149Y52D03*
X1449Y52D03*
X949Y52D03*
X1249Y52D03*
X749Y52D03*
X1049Y52D03*
X549Y52D03*
X849Y52D03*
X349Y52D03*
X649Y52D03*
G54D11*
X249Y152D03*
G54D12*
X449Y52D03*
G54D11*
X449Y152D03*
G54D12*
X249Y52D03*
G54D11*
X649Y152D03*
X349Y152D03*
X849Y152D03*
X549Y152D03*
X1049Y152D03*
X749Y152D03*
X1249Y152D03*
X949Y152D03*
X1449Y152D03*
X1149Y152D03*
X1649Y152D03*
X1349Y152D03*
X1749Y752D03*
X1549Y152D03*
X1549Y752D03*
X1749Y152D03*
X1349Y752D03*
X1649Y752D03*
X1149Y752D03*
X1449Y752D03*
X949Y752D03*
X1249Y752D03*
X749Y752D03*
X1049Y752D03*
X849Y752D03*
G54D14*
X1049Y753D03*
X1049Y653D03*
X1049Y553D03*
X949Y753D03*
X949Y653D03*
X949Y553D03*
X1149Y753D03*
X1149Y653D03*
X1149Y553D03*
X1249Y753D03*
X1249Y653D03*
X1249Y553D03*
X1949Y653D03*
X1949Y553D03*
X1949Y453D03*
X1949Y353D03*
X1949Y253D03*
X1849Y653D03*
X1849Y553D03*
X1849Y453D03*
X1849Y353D03*
X1849Y253D03*
X1749Y653D03*
X1749Y553D03*
X1749Y453D03*
X1749Y353D03*
X1749Y253D03*
X1649Y653D03*
X1649Y553D03*
X1649Y453D03*
X1649Y353D03*
X1649Y253D03*
X1549Y653D03*
X1549Y553D03*
X1549Y453D03*
X1549Y353D03*
X1549Y253D03*
X1449Y653D03*
X1449Y553D03*
X1449Y453D03*
X1449Y353D03*
X1449Y253D03*
X1349Y653D03*
X1349Y553D03*
X1349Y453D03*
X1349Y353D03*
X1349Y253D03*
G54D15*
D02*
G04 End of Mask0*
M02*